<svg version="1.0" xmlns="http://www.w3.org/2000/svg" viewBox="0 0 1024 1024" preserveAspectRatio="xMidYMid meet">
    <g transform="matrix(.1 0 0 -.1 0 1024)" fill="#000000" stroke="none">
        <path d="M2815 6616c-109 -50 -167 -176 -136 -293 41 -152 229 -230 372 -155 182 95 182 352 0 445 -73 36 -163 38 -236 3"/>
        <path d="M1166 5999c-66 -16 -175 -79 -216 -127l-40 -45v163H480V4770h430v378c0 344 2 381 19 417 69 152 283 152 364 1 21 -40 22 -51 25 -418l3 -378h438l3 394 3 394 30 44c24 34 42 47 85 62 103 36 195 2 240 -89l25 -50 3 -377 3 -378h429v413c0 453 -5 498 -58 603 -54 106 -141 172 -267 204 -139 36 -281 24 -387 -32 -53 -28 -147 -114 -161 -148 -5 -12 -10 -10 -24 10 -69 97 -146 149 -254 175 -70 16 -202 18 -263 4"/>
        <path d="M3685 6004c-168 -26 -297 -110 -356 -230 -27 -54 -33 -81 -37 -148 -6 -109 14 -177 69 -240 69 -78 135 -109 321 -151 128 -29 185 -55 194 -90s0 -52 -38 -74c-77 -48 -224 -35 -359 30 -44 21 -84 39 -87 39 -4 0 -36 -57 -72 -126l-65 -125 25 -19c50 -39 161 -91 237 -112 103 -27 307 -30 403 -5 198 52 318 177 336 347 13 129 -31 236 -123 304 -58 43 -126 70 -258 102 -159 39 -205 64 -205 112 1 59 48 86 151 85 80 0 185 -27 247 -64 19 -11 37 -17 40 -15 4 2 34 59 67 125 58 118 59 121 40 136 -35 28 -158 84 -220 100 -60 16 -253 28 -310 19"/>
        <path d="M4825 6004c-262 -55 -436 -221 -490 -467 -25 -116 -17 -306 18 -405 63 -181 190 -306 369 -366 201 -68 421 -29 551 97l47 46v-139h400v1220h-400v-152l-47 48c-80 79 -208 125 -348 123 -44 -1 -89 -3 -100 -5m292 -349c61 -18 139 -88 174 -155 20 -38 24 -60 24 -135 0 -105 -20 -159 -79 -218 -62 -63 -109 -81 -206 -82 -77 0 -90 3 -140 31 -67 38 -104 82 -130 157 -24 69 -25 141 -3 221 14 50 27 71 72 116 31 31 72 61 91 67 51 16 139 15 197 -2"/>
        <path d="M6500 5996c-71 -19 -118 -45 -176 -99l-54 -49v142h-430V4770h429l3 388c3 364 4 389 23 427 54 107 209 126 296 35 56 -58 59 -86 59 -489v-361h430v371c0 262 4 384 12 412 36 121 198 165 298 80 17 -14 41 -44 53 -67 22 -40 22 -48 22 -419v-377h435v408c0 438 -5 491 -54 597 -44 97 -132 173 -246 211 -84 29 -285 26 -360 -5 -70 -29 -139 -82 -182 -138l-33 -45 -15 24c-60 92 -157 157 -270 178 -70 13 -185 12 -240 -4"/>
        <path d="M8495 5995c-234 -51 -391 -193 -467 -420 -31 -95 -34 -319 -4 -405 37 -109 77 -174 155 -251 83 -83 169 -132 291 -165 90 -25 326 -25 425 -1 159 40 295 132 380 257 67 98 96 187 102 316 18 340 -197 608 -537 670 -94 17 -266 17 -345 -1m288 -341c131 -45 218 -209 188 -354 -33 -158 -152 -250 -306 -237 -127 10 -211 80 -249 207 -21 71 -20 124 4 204 25 80 92 154 160 179 59 20 145 21 203 1"/>
        <path d="M2720 5380v-610h435l-3 610 -2 610h-430z"/>
        <path d="M9587 5226c-98 -36 -157 -124 -157 -233 0 -147 104 -247 255 -246q168 0 231 138c57 121 8 267 -110 327 -52 27 -165 34 -219 14"/>
    </g>
</svg>
