<svg fill="none" height="320" viewBox="0 0 320 320" width="320" xmlns="http://www.w3.org/2000/svg" xmlns:xlink="http://www.w3.org/1999/xlink" id="fi_16140648"><clipPath id="clip0_274_532"><path d="m0 0h320v320h-320z"></path></clipPath><g clip-path="url(#clip0_274_532)"><rect fill="#000" height="320" rx="80" width="320"></rect><path d="m254.448 137.728v62.976c0 11.52 12.288 4.096 12.288 15.36 0 4.096-1.792 6.144-13.568 7.424-2.048.256-11.52 1.28-20.992 1.28s-19.2-1.024-21.248-1.28c-11.52-1.28-13.312-3.072-13.312-7.424 0-11.52 12.288-3.84 12.288-15.36v-47.872c0-16.896-3.072-29.44-12.032-29.44-9.984 0-15.104 14.848-15.104 37.376v39.936c0 11.52 12.288 4.096 12.288 15.36 0 4.096-1.792 6.144-13.568 7.424-2.048.256-11.776 1.28-20.992 1.28-9.472 0-19.2-1.024-21.504-1.28-11.264-1.28-13.312-3.072-13.312-7.424 0-11.52 12.544-3.84 12.544-15.36v-47.872c0-16.896-3.072-29.44-12.288-29.44-9.728 0-15.104 14.848-15.104 37.376v39.936c0 8.96 12.544 6.912 12.544 14.592 0 7.936-12.544 9.472-35.84 9.472-21.248 0-33.536-1.28-33.536-9.472 0-7.936 12.288-5.632 12.288-14.592v-76.8c0-11.264-12.288-4.352-12.288-12.544 0-13.312 33.28-15.36 43.776-15.36 3.84 0 13.056.256 13.056 8.448v8.448c8.96-10.752 21.248-16.896 35.584-16.896 16.128 0 27.648 7.68 32.768 21.504 8.96-13.568 22.784-21.504 39.168-21.504 22.784 0 36.096 15.36 36.096 41.728z" fill="#fff"></path></g></svg>